<svg width="24" height="24" xmlns="http://www.w3.org/2000/svg">

 <g>
  <title>background</title>
  <rect fill="none" id="canvas_background" height="402" width="582" y="-1" x="-1"/>
 </g>
 <g>
  <title>Layer 1</title>
  <ellipse ry="3.530609" rx="3.020405" id="svg_4" cy="7.793372" cx="12.020408" stroke-opacity="null" stroke-width="null" stroke="null" fill="#ffffff"/>
  <path stroke="null" transform="rotate(-1.2106976509094238 12.083242416381756,12.061224937438972) " id="svg_2" fill="#d31717" d="m12.083243,0.247013c-3.259526,0 -5.901865,3.526247 -5.901865,7.876141c0,1.399 0.281519,2.707423 0.76075,3.845526c0.079601,0.189027 0.163039,0.375101 0.253633,0.554283l4.887482,11.352473l4.887482,-11.352473c0.075249,-0.148662 0.140169,-0.306185 0.207303,-0.461739l0.046477,-0.092545c0.478789,-1.138102 0.760603,-2.446526 0.760603,-3.845526c0,-4.349894 -2.64256,-7.876141 -5.901865,-7.876141zm0,3.938071c1.629652,0 2.950932,1.763173 2.950932,3.938071c0,2.174799 -1.32128,3.938071 -2.950932,3.938071c-1.629726,0 -2.950932,-1.763271 -2.950932,-3.938071c0,-2.174898 1.321206,-3.938071 2.950932,-3.938071z"/>
  <path stroke="null" id="svg_3" fill="#871919" d="m12,3.285714c-2.09641,0 -3.79592,2.064994 -3.79592,4.612245c0,2.546882 1.699509,4.612245 3.79592,4.612245c2.096107,0 3.79592,-2.065363 3.79592,-4.612245c0,-2.547251 -1.699813,-4.612245 -3.79592,-4.612245zm0,1.844898c1.257968,0 2.277552,1.238941 2.277552,2.767347s-1.019584,2.767347 -2.277552,2.767347s-2.277552,-1.238941 -2.277552,-2.767347s1.019584,-2.767347 2.277552,-2.767347z"/>
  <path stroke="null" id="svg_6" fill="#871919" d="m12,4.448976c-1.555402,0 -2.816329,1.562452 -2.816329,3.489797c0,1.927066 1.260927,3.489797 2.816329,3.489797c1.555177,0 2.816329,-1.562731 2.816329,-3.489797c0,-1.927345 -1.261152,-3.489797 -2.816329,-3.489797zm0,1.395919c0.933331,0 1.689798,0.937429 1.689798,2.093878s-0.756466,2.093878 -1.689798,2.093878s-1.689797,-0.937429 -1.689797,-2.093878s0.756466,-2.093878 1.689797,-2.093878z"/>
 </g>
</svg>